# xmcd CD database file
#
# Track frame offsets:
#	150
#	20578
#	40277
#	58377
#	76735
#	93439
#	110803
#	129744
#	143719
#	168406
#	184769
#	199351
#
# Disc length: 2881 seconds
#
# Revision: 0
# Processed by: cddbd v1.5.2PL0 Copyright (c) Steve Scherf et al.
# Submitted via: cdripper 1,0,33,916
#
DISCID=ae0b3f0c
DTITLE=Lucas and Matheus - Vou Te Amar Assim
DYEAR=1900
DGENRE=Country
TTITLE0=Vou-Te Amar Assim
TTITLE1=Laço Aberto
TTITLE2=Culpados
TTITLE3=Quem Não Te Quer Agora Sou Eu
TTITLE4=A Gente Se Enrosca
TTITLE5=Encontro Casual
TTITLE6=Feito Tatuagem
TTITLE7=Vem Comigo
TTITLE8=Conselho de Amigo
TTITLE9=Vê Se Volta Por Favor
TTITLE10=Onde Tem Amor
TTITLE11=Filho De Maria
EXTD=
EXTT0=
EXTT1=
EXTT2=
EXTT3=
EXTT4=
EXTT5=
EXTT6=
EXTT7=
EXTT8=
EXTT9=
EXTT10=
EXTT11=
PLAYORDER=
